<mxfile host="Electron" modified="2023-06-30T10:54:42.549Z" agent="Mozilla/5.0 (Windows NT 10.0; Win64; x64) AppleWebKit/537.36 (KHTML, like Gecko) draw.io/21.5.0 Chrome/112.0.5615.204 Electron/24.5.1 Safari/537.36" etag="dIP1usPoURkzCexTB3ND" version="21.5.0" type="device">
  <diagram name="Page-1" id="SLJf9hFDPUjrdSc63lsi">
    <mxGraphModel dx="1432" dy="1908" grid="1" gridSize="10" guides="1" tooltips="1" connect="1" arrows="1" fold="1" page="1" pageScale="1" pageWidth="850" pageHeight="1100" math="0" shadow="0">
      <root>
        <mxCell id="0" />
        <mxCell id="1" parent="0" />
        <mxCell id="aNiyWyzY-QHpJDEXsC2A-7" style="edgeStyle=orthogonalEdgeStyle;rounded=0;orthogonalLoop=1;jettySize=auto;html=1;" edge="1" parent="1" source="aNiyWyzY-QHpJDEXsC2A-1" target="aNiyWyzY-QHpJDEXsC2A-2">
          <mxGeometry relative="1" as="geometry" />
        </mxCell>
        <mxCell id="aNiyWyzY-QHpJDEXsC2A-1" value="Start" style="ellipse;whiteSpace=wrap;html=1;aspect=fixed;" vertex="1" parent="1">
          <mxGeometry x="40" y="230" width="80" height="80" as="geometry" />
        </mxCell>
        <mxCell id="aNiyWyzY-QHpJDEXsC2A-8" style="edgeStyle=orthogonalEdgeStyle;rounded=0;orthogonalLoop=1;jettySize=auto;html=1;entryX=0;entryY=0.5;entryDx=0;entryDy=0;" edge="1" parent="1" source="aNiyWyzY-QHpJDEXsC2A-2" target="aNiyWyzY-QHpJDEXsC2A-5">
          <mxGeometry relative="1" as="geometry" />
        </mxCell>
        <mxCell id="aNiyWyzY-QHpJDEXsC2A-9" style="edgeStyle=orthogonalEdgeStyle;rounded=0;orthogonalLoop=1;jettySize=auto;html=1;entryX=0;entryY=0.5;entryDx=0;entryDy=0;" edge="1" parent="1" source="aNiyWyzY-QHpJDEXsC2A-2" target="aNiyWyzY-QHpJDEXsC2A-3">
          <mxGeometry relative="1" as="geometry" />
        </mxCell>
        <mxCell id="aNiyWyzY-QHpJDEXsC2A-10" style="edgeStyle=orthogonalEdgeStyle;rounded=0;orthogonalLoop=1;jettySize=auto;html=1;entryX=0;entryY=0.5;entryDx=0;entryDy=0;" edge="1" parent="1" source="aNiyWyzY-QHpJDEXsC2A-2" target="aNiyWyzY-QHpJDEXsC2A-6">
          <mxGeometry relative="1" as="geometry" />
        </mxCell>
        <mxCell id="aNiyWyzY-QHpJDEXsC2A-2" value="A" style="rounded=1;whiteSpace=wrap;html=1;" vertex="1" parent="1">
          <mxGeometry x="170" y="240" width="120" height="60" as="geometry" />
        </mxCell>
        <mxCell id="aNiyWyzY-QHpJDEXsC2A-12" style="edgeStyle=orthogonalEdgeStyle;rounded=0;orthogonalLoop=1;jettySize=auto;html=1;" edge="1" parent="1" source="aNiyWyzY-QHpJDEXsC2A-3" target="aNiyWyzY-QHpJDEXsC2A-4">
          <mxGeometry relative="1" as="geometry" />
        </mxCell>
        <mxCell id="aNiyWyzY-QHpJDEXsC2A-3" value="D" style="rounded=1;whiteSpace=wrap;html=1;" vertex="1" parent="1">
          <mxGeometry x="359" y="330" width="120" height="60" as="geometry" />
        </mxCell>
        <mxCell id="aNiyWyzY-QHpJDEXsC2A-13" style="edgeStyle=orthogonalEdgeStyle;rounded=0;orthogonalLoop=1;jettySize=auto;html=1;" edge="1" parent="1" source="aNiyWyzY-QHpJDEXsC2A-4" target="aNiyWyzY-QHpJDEXsC2A-6">
          <mxGeometry relative="1" as="geometry" />
        </mxCell>
        <mxCell id="aNiyWyzY-QHpJDEXsC2A-4" value="C" style="rounded=1;whiteSpace=wrap;html=1;" vertex="1" parent="1">
          <mxGeometry x="529" y="150" width="120" height="60" as="geometry" />
        </mxCell>
        <mxCell id="aNiyWyzY-QHpJDEXsC2A-11" style="edgeStyle=orthogonalEdgeStyle;rounded=0;orthogonalLoop=1;jettySize=auto;html=1;" edge="1" parent="1" source="aNiyWyzY-QHpJDEXsC2A-5" target="aNiyWyzY-QHpJDEXsC2A-4">
          <mxGeometry relative="1" as="geometry" />
        </mxCell>
        <mxCell id="aNiyWyzY-QHpJDEXsC2A-5" value="B" style="rounded=1;whiteSpace=wrap;html=1;" vertex="1" parent="1">
          <mxGeometry x="359" y="150" width="120" height="60" as="geometry" />
        </mxCell>
        <mxCell id="aNiyWyzY-QHpJDEXsC2A-6" value="End" style="ellipse;whiteSpace=wrap;html=1;aspect=fixed;" vertex="1" parent="1">
          <mxGeometry x="670" y="230" width="80" height="80" as="geometry" />
        </mxCell>
      </root>
    </mxGraphModel>
  </diagram>
</mxfile>
